<?xml version="1.0" encoding="utf-8"?>
<!-- Generator: Adobe Illustrator 16.0.0, SVG Export Plug-In . SVG Version: 6.00 Build 0)  -->
<!DOCTYPE svg PUBLIC "-//W3C//DTD SVG 1.1//EN" "http://www.w3.org/Graphics/SVG/1.1/DTD/svg11.dtd" [
	<!ENTITY ns_extend "http://ns.adobe.com/Extensibility/1.0/">
	<!ENTITY ns_ai "http://ns.adobe.com/AdobeIllustrator/10.0/">
	<!ENTITY ns_graphs "http://ns.adobe.com/Graphs/1.0/">
	<!ENTITY ns_vars "http://ns.adobe.com/Variables/1.0/">
	<!ENTITY ns_imrep "http://ns.adobe.com/ImageReplacement/1.0/">
	<!ENTITY ns_sfw "http://ns.adobe.com/SaveForWeb/1.0/">
	<!ENTITY ns_custom "http://ns.adobe.com/GenericCustomNamespace/1.0/">
	<!ENTITY ns_adobe_xpath "http://ns.adobe.com/XPath/1.0/">
]>
<svg version="1.1"
	 id="Capa_1" xmlns:x="&ns_extend;" xmlns:i="&ns_ai;" xmlns:graph="&ns_graphs;" xmlns:osb="http://www.openswatchbook.org/uri/2009/osb" xmlns:dc="http://purl.org/dc/elements/1.1/" xmlns:sodipodi="http://sodipodi.sourceforge.net/DTD/sodipodi-0.dtd" xmlns:inkscape="http://www.inkscape.org/namespaces/inkscape" xmlns:rdf="http://www.w3.org/1999/02/22-rdf-syntax-ns#" xmlns:cc="http://creativecommons.org/ns#" xmlns:svg="http://www.w3.org/2000/svg" sodipodi:docname="myexample.svg" inkscape:version="0.48.4 r9939"
	 xmlns="http://www.w3.org/2000/svg" xmlns:xlink="http://www.w3.org/1999/xlink" x="0px" y="0px" width="690px" height="483.5px"
	 viewBox="0 0 690 483.5" enable-background="new 0 0 690 483.5" xml:space="preserve">
<metadata>
	<sfw  xmlns="&ns_sfw;">
		<slices></slices>
		<sliceSourceBounds  width="850.907" height="368.534" x="-418.522" y="118.834" bottomLeftOrigin="true"></sliceSourceBounds>
	</sfw>
</metadata>
<sodipodi:namedview  bordercolor="#666666" borderopacity="1.0" showgrid="false" inkscape:cx="264.29004" inkscape:cy="544.41083" id="namedview2991" pagecolor="#ffffff" inkscape:zoom="2" inkscape:pageopacity="0.0" inkscape:window-width="1600" inkscape:snap-global="true" inkscape:object-paths="false" inkscape:snap-nodes="false" inkscape:window-maximized="1" inkscape:pageshadow="2" inkscape:current-layer="layer4" inkscape:window-x="-8" inkscape:document-units="mm" inkscape:window-y="-8" inkscape:window-height="838">
	</sodipodi:namedview>
<g>
	<g id="Base">
		<path fill="#FFFEFE" d="M43.859,53.196H7.557l-1.331,5.278h-150.448c0,0-3.431-0.104-3.105,4.363v55.196
			c0,0,0.933,13.111-13.637,13.77l-150.004,0.02c0,0-10.843,0.101-11.974,12.833v136.214c0,0-1.855,13.49,12.307,15.148h179.384
			c0,0,9.866,0.5,12.195,10.557l0.222,53.645c0,0-1.957,7.287,7.429,7.287h493.583c0,0,7.247,1.572,6.318-7.227v-43.838
			l-4.102-28.232h4.228l0.229,13.896l24.6,0.104l109.878,0.344c0,0,4.913,0.448,4.536-5.753V115.275v-3.671
			c0,0-0.58-4.245-4.701-4.245H397.594V63.637l-167.387,0.008v46.918h20.661v8.042h-21.907c0,0-6.099-0.795-6.099-6.712V66.507
			l-0.201-61.625H43.859V53.196z M-95.108,223.836v-1.096c1.188-2.632,1.872-5.563,1.872-8.659c0-3.096-0.684-6.022-1.872-8.656
			v-1.554h31.265v19.966L-95.108,223.836L-95.108,223.836z M-58.854,223.836v-19.97h19.292v19.97H-58.854z M-34.683,223.836v-19.97
			H35.05v19.97H-34.683z M39.928,223.836v-19.97H59.22v19.97H39.928z M64.211,223.836v-19.97h48.449v19.97H64.211z M156.009,223.836
			v-19.97h48.449v19.97H156.009z M209.335,223.836v-19.852h19.286v19.852H209.335z M233.615,223.836v-19.852h55.546v19.852H233.615z
			 M294.039,223.836v-19.97h19.402v19.97H294.039z M349.917,203.407c-1.728,3.071-2.723,6.637-2.723,10.443
			c0,3.62,0.895,7.021,2.471,9.985h-31.344v-20.429L349.917,203.407L349.917,203.407z"/>
		<g id="señalamientos">
			
				<polyline opacity="0.2" fill="none" stroke="#000000" stroke-width="2" stroke-miterlimit="10" enable-background="new    " points="
				291.207,373.416 291.207,360.261 313.481,360.261 313.481,373.416 			"/>
			
				<polyline opacity="0.2" fill="none" stroke="#000000" stroke-width="2" stroke-miterlimit="10" enable-background="new    " points="
				454.313,306.688 454.313,293.536 476.586,293.536 476.586,306.688 			"/>
			
				<polyline opacity="0.2" fill="none" stroke="#000000" stroke-width="2" stroke-miterlimit="10" enable-background="new    " points="
				478.077,99.191 478.077,112.344 455.803,112.344 455.803,99.191 			"/>
			
				<polyline opacity="0.2" fill="none" stroke="#000000" stroke-width="2" stroke-miterlimit="10" enable-background="new    " points="
				-228.973,298.012 -228.973,284.859 -206.699,284.859 -206.699,298.012 			"/>
			
				<polyline opacity="0.2" fill="none" stroke="#000000" stroke-width="2" stroke-miterlimit="10" enable-background="new    " points="
				-204.463,130.642 -204.463,143.795 -226.737,143.795 -226.737,130.642 			"/>
			
				<polyline opacity="0.2" fill="none" stroke="#000000" stroke-width="2" stroke-miterlimit="10" enable-background="new    " points="
				130.692,362.227 130.692,349.07 152.968,349.07 152.968,362.227 			"/>
			<g id="Layer_6">
				<g>
					<path d="M374.032,317.193c-0.203,0-0.372,0.166-0.372,0.369v10.215c0,0.205,0.169,0.371,0.372,0.371
						c0.204,0,0.372-0.166,0.372-0.371v-10.215C374.404,317.359,374.239,317.193,374.032,317.193L374.032,317.193z"/>
					<g>
						<g>
							<g>
								<g>
									<g>
										<g>
											<g>
												<g>
													<g>
														<g>
															<defs>
																<rect id="SVGID_1_" x="368.994" y="317.193" width="10.102" height="10.955"/>
															</defs>
															<clipPath id="SVGID_2_">
																<use xlink:href="#SVGID_1_"  overflow="visible"/>
															</clipPath>
															<path clip-path="url(#SVGID_2_)" d="M370.714,320.611c0.655,0,1.184-0.53,1.184-1.186
																c0-0.652-0.53-1.184-1.184-1.184c-0.656,0-1.184,0.533-1.184,1.184C369.53,320.083,370.059,320.611,370.714,320.611
																L370.714,320.611z"/>
														</g>
													</g>
												</g>
											</g>
										</g>
									</g>
								</g>
							</g>
						</g>
						<g>
							<g>
								<g>
									<g>
										<g>
											<g>
												<g>
													<g>
														<g>
															<defs>
																<rect id="SVGID_3_" x="368.994" y="317.193" width="10.102" height="10.955"/>
															</defs>
															<clipPath id="SVGID_4_">
																<use xlink:href="#SVGID_3_"  overflow="visible"/>
															</clipPath>
															<path clip-path="url(#SVGID_4_)" d="M372.027,320.734h-2.626c-0.112,0-0.222,0.048-0.295,0.133
																c-0.08,0.08-0.113,0.193-0.107,0.302l0.186,2.426c0.009,0.104,0.056,0.201,0.133,0.271l0.423,0.385v2.452
																c0,0.224,0.183,0.401,0.404,0.401h0.176c0.189,0,0.35-0.131,0.392-0.302c0.043,0.173,0.201,0.302,0.395,0.302h0.171
																c0.225,0,0.404-0.181,0.404-0.401v-2.452l0.427-0.385c0.076-0.072,0.125-0.17,0.132-0.271l0.185-2.426
																c0.013-0.108-0.028-0.224-0.105-0.302C372.247,320.782,372.141,320.734,372.027,320.734L372.027,320.734z"/>
														</g>
													</g>
												</g>
											</g>
										</g>
									</g>
								</g>
							</g>
						</g>
					</g>
					<path d="M378.258,319.432c0,0.655-0.529,1.184-1.184,1.184c-0.655,0-1.185-0.53-1.185-1.184c0-0.658,0.528-1.186,1.185-1.186
						C377.729,318.243,378.258,318.775,378.258,319.432L378.258,319.432z"/>
					<path d="M379.065,325.305l-0.407-2.406l0.133-1.728c0.009-0.11-0.031-0.223-0.107-0.303c-0.078-0.083-0.184-0.13-0.296-0.13
						h-2.626c-0.112,0-0.224,0.044-0.297,0.13c-0.078,0.079-0.116,0.192-0.107,0.303l0.135,1.728l-0.41,2.418
						c-0.014,0.072,0.011,0.139,0.052,0.188c0.048,0.054,0.111,0.08,0.181,0.08h0.786v1.11c0,0.227,0.18,0.404,0.404,0.404h0.177
						c0.188,0,0.348-0.132,0.392-0.303c0.045,0.173,0.201,0.303,0.389,0.303h0.179c0.224,0,0.403-0.182,0.403-0.404v-1.11h0.787l0,0
						c0.133,0,0.237-0.108,0.237-0.237C379.072,325.333,379.068,325.318,379.065,325.305L379.065,325.305z"/>
				</g>
				<g>
					<path d="M-129.425,142.024c-0.204,0-0.371,0.166-0.371,0.37v10.217c0,0.205,0.167,0.372,0.371,0.372
						c0.205,0,0.372-0.167,0.372-0.372v-10.217C-129.052,142.189-129.221,142.024-129.425,142.024L-129.425,142.024z"/>
					<g>
						<g>
							<g>
								<g>
									<g>
										<g>
											<g>
												<g>
													<g>
														<g>
															<defs>
																<rect id="SVGID_5_" x="-134.462" y="142.024" width="10.1" height="10.959"/>
															</defs>
															<clipPath id="SVGID_6_">
																<use xlink:href="#SVGID_5_"  overflow="visible"/>
															</clipPath>
															<path clip-path="url(#SVGID_6_)" d="M-132.747,145.443c0.656,0,1.185-0.531,1.185-1.183
																c0-0.654-0.529-1.184-1.185-1.184c-0.654,0-1.182,0.53-1.182,1.184
																C-133.929,144.911-133.399,145.443-132.747,145.443L-132.747,145.443z"/>
														</g>
													</g>
												</g>
											</g>
										</g>
									</g>
								</g>
							</g>
						</g>
						<g>
							<g>
								<g>
									<g>
										<g>
											<g>
												<g>
													<g>
														<g>
															<defs>
																<rect id="SVGID_7_" x="-134.462" y="142.024" width="10.1" height="10.959"/>
															</defs>
															<clipPath id="SVGID_8_">
																<use xlink:href="#SVGID_7_"  overflow="visible"/>
															</clipPath>
															<path clip-path="url(#SVGID_8_)" d="M-131.431,145.564h-2.628c-0.112,0-0.22,0.046-0.296,0.131
																c-0.076,0.084-0.116,0.194-0.104,0.306l0.186,2.426c0.007,0.104,0.054,0.199,0.132,0.269l0.424,0.382v2.453
																c0,0.225,0.182,0.403,0.405,0.403h0.178c0.188,0,0.347-0.131,0.391-0.303c0.045,0.176,0.203,0.303,0.393,0.303h0.175
																c0.223,0,0.403-0.183,0.403-0.403v-2.453l0.428-0.382c0.077-0.071,0.124-0.167,0.131-0.269l0.187-2.426
																c0.01-0.112-0.031-0.225-0.105-0.306C-131.209,145.614-131.316,145.564-131.431,145.564L-131.431,145.564z"/>
														</g>
													</g>
												</g>
											</g>
										</g>
									</g>
								</g>
							</g>
						</g>
					</g>
					<path d="M-125.201,144.259c0,0.652-0.529,1.183-1.185,1.183c-0.654,0-1.184-0.531-1.184-1.183c0-0.656,0.53-1.185,1.184-1.185
						C-125.73,143.074-125.201,143.605-125.201,144.259L-125.201,144.259z"/>
					<path d="M-124.392,150.132l-0.409-2.406l0.134-1.725c0.009-0.112-0.03-0.225-0.107-0.306c-0.077-0.081-0.184-0.131-0.296-0.131
						h-2.627c-0.113,0-0.221,0.046-0.296,0.131c-0.078,0.081-0.117,0.194-0.107,0.306l0.134,1.728l-0.411,2.419
						c-0.009,0.068,0.012,0.139,0.056,0.19c0.046,0.049,0.11,0.079,0.181,0.079h0.786v1.111c0,0.225,0.181,0.404,0.405,0.404h0.177
						c0.189,0,0.348-0.131,0.391-0.304c0.045,0.177,0.203,0.304,0.392,0.304h0.177c0.223,0,0.404-0.183,0.404-0.404v-1.111h0.786
						l0,0c0.131,0,0.238-0.105,0.238-0.237C-124.387,150.164-124.39,150.146-124.392,150.132L-124.392,150.132z"/>
				</g>
				<g>
					<path d="M-128.679,270.874c-0.204,0-0.371,0.167-0.371,0.369v10.219c0,0.2,0.167,0.37,0.371,0.37
						c0.206,0,0.373-0.17,0.373-0.37v-10.219C-128.309,271.039-128.473,270.874-128.679,270.874L-128.679,270.874z"/>
					<g>
						<g>
							<g>
								<g>
									<g>
										<g>
											<g>
												<g>
													<g>
														<g>
															<defs>
																<rect id="SVGID_9_" x="-133.717" y="270.874" width="10.101" height="10.958"/>
															</defs>
															<clipPath id="SVGID_10_">
																<use xlink:href="#SVGID_9_"  overflow="visible"/>
															</clipPath>
															<path clip-path="url(#SVGID_10_)" d="M-131.998,274.292c0.656,0,1.185-0.532,1.185-1.187
																c0-0.653-0.529-1.182-1.185-1.182c-0.655,0-1.183,0.529-1.183,1.182
																C-133.181,273.76-132.653,274.292-131.998,274.292L-131.998,274.292z"/>
														</g>
													</g>
												</g>
											</g>
										</g>
									</g>
								</g>
							</g>
						</g>
						<g>
							<g>
								<g>
									<g>
										<g>
											<g>
												<g>
													<g>
														<g>
															<defs>
																<rect id="SVGID_11_" x="-133.717" y="270.874" width="10.101" height="10.958"/>
															</defs>
															<clipPath id="SVGID_12_">
																<use xlink:href="#SVGID_11_"  overflow="visible"/>
															</clipPath>
															<path clip-path="url(#SVGID_12_)" d="M-130.684,274.415h-2.627c-0.113,0-0.221,0.047-0.297,0.13
																c-0.077,0.079-0.115,0.193-0.105,0.305l0.186,2.424c0.008,0.105,0.054,0.201,0.132,0.271l0.424,0.382v2.452
																c0,0.225,0.181,0.402,0.404,0.402h0.178c0.188,0,0.346-0.129,0.391-0.301c0.044,0.174,0.202,0.301,0.392,0.301h0.176
																c0.224,0,0.405-0.182,0.405-0.402v-2.452l0.426-0.382c0.077-0.072,0.125-0.169,0.131-0.271l0.187-2.424
																c0.008-0.11-0.03-0.226-0.106-0.305C-130.464,274.462-130.57,274.415-130.684,274.415L-130.684,274.415z"/>
														</g>
													</g>
												</g>
											</g>
										</g>
									</g>
								</g>
							</g>
						</g>
					</g>
					<path d="M-124.454,273.105c0,0.654-0.528,1.186-1.184,1.186c-0.655,0-1.184-0.533-1.184-1.186c0-0.654,0.529-1.183,1.184-1.183
						C-124.982,271.923-124.454,272.452-124.454,273.105L-124.454,273.105z"/>
					<path d="M-123.646,278.98l-0.409-2.402l0.133-1.727c0.009-0.11-0.029-0.226-0.105-0.305c-0.077-0.079-0.185-0.131-0.297-0.131
						h-2.627c-0.114,0-0.221,0.047-0.297,0.131c-0.078,0.079-0.117,0.193-0.107,0.305l0.133,1.727l-0.409,2.418
						c-0.011,0.07,0.011,0.141,0.055,0.188c0.046,0.053,0.11,0.082,0.179,0.082h0.785v1.109c0,0.225,0.181,0.402,0.405,0.402h0.177
						c0.188,0,0.347-0.129,0.391-0.305c0.045,0.178,0.205,0.305,0.392,0.305h0.176c0.224,0,0.405-0.182,0.405-0.402v-1.109h0.785
						l0,0c0.131,0,0.238-0.108,0.238-0.236C-123.64,279.014-123.642,278.994-123.646,278.98L-123.646,278.98z"/>
				</g>
				<g>
					<path d="M41.029,91.963c-0.162,0-0.295,0.131-0.295,0.295v8.135c0,0.163,0.135,0.293,0.295,0.293
						c0.163,0,0.295-0.131,0.295-0.293v-8.135C41.325,92.095,41.192,91.963,41.029,91.963L41.029,91.963z"/>
					<g>
						<g>
							<g>
								<g>
									<g>
										<g>
											<g>
												<g>
													<g>
														<g>
															<defs>
																<rect id="SVGID_13_" x="37.019" y="91.963" width="8.042" height="8.726"/>
															</defs>
															<clipPath id="SVGID_14_">
																<use xlink:href="#SVGID_13_"  overflow="visible"/>
															</clipPath>
															<path clip-path="url(#SVGID_14_)" d="M38.388,94.684c0.521,0,0.944-0.421,0.944-0.941
																c0-0.521-0.42-0.943-0.944-0.943c-0.521,0-0.942,0.421-0.942,0.943C37.446,94.263,37.868,94.684,38.388,94.684
																L38.388,94.684z"/>
														</g>
													</g>
												</g>
											</g>
										</g>
									</g>
								</g>
							</g>
						</g>
						<g>
							<g>
								<g>
									<g>
										<g>
											<g>
												<g>
													<g>
														<g>
															<defs>
																<rect id="SVGID_15_" x="37.019" y="91.963" width="8.042" height="8.726"/>
															</defs>
															<clipPath id="SVGID_16_">
																<use xlink:href="#SVGID_15_"  overflow="visible"/>
															</clipPath>
															<path clip-path="url(#SVGID_16_)" d="M39.433,94.784h-2.092c-0.09,0-0.175,0.037-0.234,0.102
																c-0.061,0.066-0.092,0.154-0.083,0.245l0.147,1.929c0.005,0.082,0.044,0.157,0.106,0.213l0.336,0.305v1.952
																c0,0.179,0.144,0.324,0.322,0.324h0.142c0.149,0,0.274-0.103,0.311-0.242c0.036,0.139,0.162,0.242,0.311,0.242h0.14
																c0.179,0,0.324-0.145,0.324-0.324v-1.952l0.34-0.305c0.061-0.056,0.1-0.131,0.104-0.213l0.149-1.929
																c0.008-0.091-0.024-0.182-0.084-0.245C39.609,94.82,39.526,94.784,39.433,94.784L39.433,94.784z"/>
														</g>
													</g>
												</g>
											</g>
										</g>
									</g>
								</g>
							</g>
						</g>
					</g>
					<path d="M44.393,93.743c0,0.519-0.421,0.941-0.943,0.941c-0.521,0-0.945-0.421-0.945-0.941c0-0.521,0.422-0.943,0.945-0.943
						C43.973,92.8,44.393,93.222,44.393,93.743L44.393,93.743z"/>
					<path d="M45.037,98.417l-0.327-1.913l0.108-1.374c0.008-0.091-0.024-0.182-0.084-0.245c-0.06-0.065-0.145-0.102-0.236-0.102
						h-2.091c-0.091,0-0.177,0.037-0.236,0.102c-0.061,0.066-0.093,0.154-0.085,0.245l0.106,1.374l-0.326,1.924
						c-0.01,0.056,0.009,0.109,0.044,0.153c0.036,0.04,0.088,0.065,0.144,0.065h0.625v0.884c0,0.178,0.141,0.323,0.321,0.323h0.142
						c0.148,0,0.276-0.103,0.311-0.243c0.036,0.14,0.162,0.243,0.312,0.243h0.141c0.177,0,0.324-0.145,0.324-0.323v-0.884h0.626l0,0
						c0.104,0,0.19-0.083,0.19-0.189C45.042,98.443,45.041,98.429,45.037,98.417L45.037,98.417z"/>
				</g>
				<g>
					<path d="M213.381,91.963c-0.16,0-0.294,0.131-0.294,0.295v8.135c0,0.163,0.134,0.293,0.294,0.293
						c0.165,0,0.295-0.131,0.295-0.293v-8.135C213.677,92.095,213.544,91.963,213.381,91.963L213.381,91.963z"/>
					<g>
						<g>
							<g>
								<g>
									<g>
										<g>
											<g>
												<g>
													<g>
														<g>
															<defs>
																<rect id="SVGID_17_" x="209.37" y="91.963" width="8.041" height="8.726"/>
															</defs>
															<clipPath id="SVGID_18_">
																<use xlink:href="#SVGID_17_"  overflow="visible"/>
															</clipPath>
															<path clip-path="url(#SVGID_18_)" d="M210.738,94.684c0.523,0,0.945-0.421,0.945-0.941
																c0-0.521-0.42-0.943-0.945-0.943c-0.52,0-0.942,0.421-0.942,0.943C209.796,94.263,210.218,94.684,210.738,94.684
																L210.738,94.684z"/>
														</g>
													</g>
												</g>
											</g>
										</g>
									</g>
								</g>
							</g>
						</g>
						<g>
							<g>
								<g>
									<g>
										<g>
											<g>
												<g>
													<g>
														<g>
															<defs>
																<rect id="SVGID_19_" x="209.37" y="91.963" width="8.041" height="8.726"/>
															</defs>
															<clipPath id="SVGID_20_">
																<use xlink:href="#SVGID_19_"  overflow="visible"/>
															</clipPath>
															<path clip-path="url(#SVGID_20_)" d="M211.786,94.784h-2.096c-0.09,0-0.172,0.037-0.234,0.102
																c-0.062,0.066-0.091,0.154-0.083,0.245l0.145,1.929c0.009,0.082,0.046,0.157,0.107,0.213l0.338,0.305v1.952
																c0,0.179,0.146,0.324,0.323,0.324h0.142c0.149,0,0.274-0.103,0.311-0.242c0.036,0.139,0.162,0.242,0.313,0.242h0.138
																c0.178,0,0.323-0.145,0.323-0.324v-1.952l0.342-0.305c0.059-0.056,0.097-0.131,0.104-0.213l0.149-1.929
																c0.011-0.091-0.024-0.182-0.082-0.245C211.96,94.82,211.875,94.784,211.786,94.784L211.786,94.784z"/>
														</g>
													</g>
												</g>
											</g>
										</g>
									</g>
								</g>
							</g>
						</g>
					</g>
					<path d="M216.743,93.743c0,0.519-0.419,0.941-0.943,0.941c-0.52,0-0.943-0.421-0.943-0.941c0-0.521,0.421-0.943,0.943-0.943
						C216.324,92.801,216.743,93.222,216.743,93.743L216.743,93.743z"/>
					<path d="M217.388,98.417l-0.325-1.913l0.106-1.374c0.007-0.091-0.025-0.182-0.083-0.245c-0.061-0.065-0.142-0.102-0.234-0.102
						h-2.096c-0.09,0-0.173,0.037-0.233,0.102c-0.063,0.066-0.092,0.154-0.085,0.245l0.108,1.374l-0.327,1.924
						c-0.008,0.056,0.007,0.109,0.047,0.153c0.034,0.04,0.085,0.065,0.14,0.065h0.625v0.884c0,0.178,0.142,0.323,0.323,0.323h0.139
						c0.15,0,0.277-0.103,0.313-0.243c0.035,0.14,0.161,0.243,0.313,0.243h0.143c0.172,0,0.323-0.145,0.323-0.323v-0.884h0.623l0,0
						c0.108,0,0.189-0.083,0.189-0.189C217.393,98.443,217.39,98.429,217.388,98.417L217.388,98.417z"/>
				</g>
				<g>
					<path d="M256.613,127.665c-0.161,0-0.294,0.131-0.294,0.295v8.133c0,0.163,0.132,0.295,0.294,0.295
						c0.165,0,0.295-0.132,0.295-0.295v-8.133C256.91,127.796,256.777,127.665,256.613,127.665L256.613,127.665z"/>
					<g>
						<g>
							<g>
								<g>
									<g>
										<g>
											<g>
												<g>
													<g>
														<g>
															<defs>
																<rect id="SVGID_21_" x="252.603" y="127.665" width="8.04" height="8.726"/>
															</defs>
															<clipPath id="SVGID_22_">
																<use xlink:href="#SVGID_21_"  overflow="visible"/>
															</clipPath>
															<path clip-path="url(#SVGID_22_)" d="M253.971,130.386c0.52,0,0.942-0.421,0.942-0.943s-0.42-0.942-0.942-0.942
																s-0.941,0.42-0.941,0.942C253.029,129.965,253.449,130.386,253.971,130.386L253.971,130.386z"/>
														</g>
													</g>
												</g>
											</g>
										</g>
									</g>
								</g>
							</g>
						</g>
						<g>
							<g>
								<g>
									<g>
										<g>
											<g>
												<g>
													<g>
														<g>
															<defs>
																<rect id="SVGID_23_" x="252.603" y="127.665" width="8.04" height="8.726"/>
															</defs>
															<clipPath id="SVGID_24_">
																<use xlink:href="#SVGID_23_"  overflow="visible"/>
															</clipPath>
															<path clip-path="url(#SVGID_24_)" d="M255.019,130.484h-2.097c-0.086,0-0.171,0.037-0.234,0.103
																c-0.059,0.067-0.089,0.155-0.082,0.244l0.147,1.931c0.008,0.082,0.043,0.159,0.106,0.214l0.337,0.304v1.953
																c0,0.176,0.146,0.323,0.324,0.323h0.14c0.149,0,0.276-0.104,0.313-0.244c0.035,0.14,0.16,0.244,0.312,0.244h0.139
																c0.176,0,0.324-0.143,0.324-0.323v-1.953l0.339-0.304c0.063-0.055,0.101-0.131,0.105-0.214l0.148-1.931
																c0.008-0.089-0.025-0.178-0.083-0.244C255.192,130.523,255.108,130.484,255.019,130.484L255.019,130.484z"/>
														</g>
													</g>
												</g>
											</g>
										</g>
									</g>
								</g>
							</g>
						</g>
					</g>
					<path d="M259.976,129.445c0,0.52-0.42,0.94-0.943,0.94c-0.519,0-0.942-0.421-0.942-0.94c0-0.525,0.419-0.943,0.942-0.943
						S259.976,128.92,259.976,129.445L259.976,129.445z"/>
					<path d="M260.621,134.119l-0.328-1.913l0.111-1.376c0.006-0.087-0.026-0.177-0.086-0.243c-0.059-0.066-0.142-0.103-0.235-0.103
						h-2.093c-0.091,0-0.174,0.036-0.234,0.103c-0.064,0.065-0.093,0.155-0.085,0.243l0.108,1.376l-0.329,1.924
						c-0.007,0.055,0.009,0.11,0.047,0.152c0.037,0.042,0.086,0.066,0.142,0.066h0.625v0.885c0,0.176,0.143,0.323,0.322,0.323h0.14
						c0.149,0,0.277-0.104,0.312-0.244c0.035,0.14,0.163,0.244,0.314,0.244h0.141c0.173,0,0.322-0.144,0.322-0.323v-0.885h0.625l0,0
						c0.105,0,0.189-0.085,0.189-0.191C260.625,134.146,260.623,134.131,260.621,134.119L260.621,134.119z"/>
				</g>
				<g>
					<path d="M145.543,181.535v10.918h-6.718v-10.918H145.543 M145.543,180.749h-6.718c-0.433,0-0.783,0.354-0.783,0.786v10.918
						c0,0.434,0.351,0.784,0.783,0.784h6.718c0.431,0,0.78-0.351,0.78-0.784v-10.918
						C146.325,181.104,145.977,180.749,145.543,180.749L145.543,180.749z"/>
					<g>
						<path d="M143.237,184.495c-0.005-0.025-0.015-0.049-0.022-0.074c-0.005-0.008-0.01-0.008-0.01-0.014
							c-0.012-0.023-0.023-0.041-0.043-0.061c-0.003-0.001-0.003-0.005-0.006-0.005c-0.018-0.021-0.041-0.034-0.062-0.048
							c-0.005-0.004-0.01-0.007-0.019-0.009c-0.017-0.011-0.041-0.021-0.064-0.026c-0.005-0.001-0.013-0.001-0.018-0.002
							c-0.015-0.003-0.032-0.006-0.051-0.006c-0.005,0-0.012,0.003-0.015,0.003c-0.004,0-0.011-0.002-0.015,0l-1.515,0.148
							c-0.163,0.016-0.283,0.16-0.266,0.327c0.017,0.162,0.165,0.282,0.328,0.266l0.579-0.059c0.086-0.008,0.108,0.037,0.049,0.101
							l-1.15,1.246c-0.111,0.12-0.106,0.311,0.016,0.422c0.056,0.051,0.129,0.078,0.2,0.078c0.08,0,0.16-0.03,0.222-0.096
							l1.163-1.26c0.061-0.065,0.109-0.047,0.109,0.04v0.714c0,0.166,0.133,0.296,0.296,0.296c0.164,0,0.298-0.132,0.298-0.296
							v-1.632c0-0.015-0.002-0.026-0.005-0.035C143.237,184.508,143.237,184.505,143.237,184.495L143.237,184.495z"/>
						<path d="M141.522,189.408c0.002,0.027,0.016,0.053,0.023,0.078c0.003,0.007,0.008,0.011,0.01,0.015
							c0.017,0.021,0.026,0.042,0.045,0.06c0.002,0.002,0.004,0.004,0.007,0.007c0.016,0.021,0.037,0.031,0.061,0.048
							c0.005,0.003,0.012,0.006,0.017,0.009c0.02,0.013,0.044,0.021,0.064,0.025c0.008,0,0.013,0,0.017,0.003
							c0.019,0.004,0.034,0.005,0.053,0.005c0.008,0,0.015-0.003,0.015-0.003c0.005,0,0.007,0,0.014,0l1.512-0.146
							c0.165-0.019,0.283-0.162,0.266-0.325c-0.017-0.166-0.163-0.288-0.327-0.27l-0.577,0.057c-0.086,0.009-0.108-0.035-0.049-0.1
							l1.15-1.247c0.111-0.118,0.106-0.308-0.019-0.42c-0.056-0.052-0.13-0.078-0.201-0.078c-0.08,0-0.159,0.031-0.219,0.096
							l-1.165,1.264c-0.058,0.062-0.108,0.043-0.108-0.043v-0.715c0-0.163-0.133-0.296-0.294-0.296
							c-0.169,0-0.299,0.133-0.299,0.296v1.632c0,0.015,0.003,0.025,0.005,0.034C141.522,189.398,141.522,189.403,141.522,189.408
							L141.522,189.408z"/>
					</g>
				</g>
				<circle fill="#FF8B4A" cx="135.003" cy="214.859" r="12.09"/>
				<circle fill="#FF8B4A" cx="-111.896" cy="213.225" r="12.091"/>
				<circle fill="#FF8B4A" cx="363.644" cy="214.065" r="12.091"/>
				<g>
					<path d="M363.391,208.687c0,0.48-0.388,0.869-0.866,0.869c-0.481,0-0.869-0.391-0.869-0.869c0-0.48,0.39-0.87,0.869-0.87
						C363.003,207.817,363.391,208.206,363.391,208.687L363.391,208.687z"/>
					<path d="M368.964,209.113h-2.938c-0.127,0-0.298,0.072-0.39,0.16l-2.1,2.098c-0.088,0.088-0.161,0.062-0.161-0.066v-0.66
						c0-0.417-0.34-0.761-0.761-0.761h-0.192c-0.42,0-0.761,0.342-0.761,0.761v2.369c0,0.13-0.075,0.303-0.163,0.394l-1.555,1.553
						c-0.086,0.087-0.265,0.163-0.391,0.163h-1.231c-0.746,0-1.352,0.604-1.352,1.345v0.257c0,0.746,0.604,1.351,1.352,1.351h2.937
						c0.128,0,0.302-0.072,0.39-0.162l5.689-5.686c0.086-0.088,0.264-0.162,0.392-0.162h1.229c0.745,0,1.353-0.606,1.353-1.35
						v-0.253C370.314,209.717,369.708,209.113,368.964,209.113L368.964,209.113z M369.443,210.716c0,0.261-0.216,0.478-0.481,0.478
						h-1.597c-0.127,0-0.3,0.071-0.39,0.161l-5.689,5.686c-0.089,0.089-0.265,0.162-0.389,0.162h-2.576
						c-0.265,0-0.479-0.215-0.479-0.48v-0.254c0-0.266,0.216-0.477,0.479-0.477h1.597c0.128,0,0.298-0.075,0.39-0.166l5.69-5.683
						c0.089-0.092,0.263-0.166,0.39-0.166h2.574c0.263,0,0.481,0.217,0.481,0.48V210.716L369.443,210.716z"/>
				</g>
				<g>
					<path d="M134.512,209.549c0,0.505-0.409,0.918-0.92,0.918c-0.505,0-0.916-0.411-0.916-0.918c0-0.505,0.41-0.916,0.916-0.916
						C134.103,208.633,134.512,209.044,134.512,209.549L134.512,209.549z"/>
					<path d="M140.385,209.997h-3.091c-0.134,0-0.319,0.077-0.413,0.17l-2.211,2.211c-0.094,0.095-0.172,0.063-0.172-0.068v-0.699
						c0-0.441-0.358-0.804-0.799-0.804h-0.201c-0.445,0-0.802,0.362-0.802,0.804v2.502c0,0.131-0.075,0.317-0.17,0.405l-1.637,1.638
						c-0.094,0.096-0.279,0.17-0.411,0.17h-1.3c-0.783,0-1.421,0.638-1.421,1.418v0.267c0,0.788,0.638,1.426,1.421,1.426h3.092
						c0.134,0,0.321-0.079,0.414-0.173l5.994-5.988c0.094-0.096,0.278-0.172,0.413-0.172h1.298c0.784,0,1.423-0.641,1.423-1.424
						v-0.268C141.806,210.633,141.167,209.997,140.385,209.997L140.385,209.997z M140.889,211.686c0,0.278-0.226,0.504-0.505,0.504
						h-1.681c-0.133,0-0.319,0.075-0.414,0.171l-5.993,5.992c-0.096,0.092-0.276,0.172-0.411,0.172h-2.715
						c-0.28,0-0.503-0.229-0.503-0.51v-0.264c0-0.277,0.227-0.502,0.503-0.502h1.68c0.132,0,0.317-0.079,0.412-0.171l5.995-5.993
						c0.093-0.091,0.278-0.17,0.41-0.17h2.716c0.28,0,0.505,0.228,0.505,0.505L140.889,211.686L140.889,211.686z"/>
				</g>
				<g>
					<path d="M-111.728,209.194c0,0.476-0.385,0.864-0.861,0.864c-0.479,0-0.865-0.389-0.865-0.864c0-0.478,0.387-0.867,0.865-0.867
						C-112.112,208.33-111.728,208.717-111.728,209.194L-111.728,209.194z"/>
					<path d="M-106.195,209.616h-2.91c-0.126,0-0.299,0.072-0.389,0.16l-2.083,2.083c-0.088,0.088-0.162,0.058-0.162-0.069v-0.657
						c0-0.414-0.337-0.754-0.754-0.754h-0.19c-0.418,0-0.758,0.34-0.758,0.754v2.354c0,0.126-0.07,0.297-0.159,0.391l-1.542,1.539
						c-0.088,0.088-0.263,0.165-0.39,0.165h-1.222c-0.739,0-1.339,0.601-1.34,1.338v0.25c0,0.739,0.6,1.34,1.339,1.34h2.914
						c0.125,0,0.298-0.075,0.388-0.16l5.647-5.646c0.087-0.086,0.261-0.159,0.388-0.159h1.223c0.737,0,1.343-0.605,1.343-1.342
						v-0.253C-104.854,210.216-105.458,209.616-106.195,209.616L-106.195,209.616z M-105.72,211.209c0,0.26-0.213,0.475-0.478,0.475
						h-1.578c-0.128,0-0.299,0.072-0.39,0.16l-5.646,5.646c-0.089,0.087-0.262,0.159-0.389,0.159h-2.555
						c-0.264,0-0.477-0.211-0.475-0.475v-0.251c0-0.263,0.211-0.478,0.475-0.478h1.581c0.127,0,0.297-0.076,0.388-0.163l5.647-5.64
						c0.087-0.091,0.262-0.163,0.387-0.163h2.557c0.264,0,0.478,0.215,0.478,0.475v0.255H-105.72L-105.72,211.209z"/>
				</g>
			</g>
		</g>
		<rect x="47.792" y="19.42" fill="#033B53" width="161.579" height="140.219"/>
	</g>
	<g id="Rooms">
		<a id="s146" xlink:href="#" >
			<g>
				<rect id="rect2998" x="-309.48" y="155.69" fill="#033B53" width="156.627" height="118.064"/>
			</g>
		</a>
		<a id="s155" xlink:href="#" >
			<g>
				<polygon id="rect2998_1_" fill="#033B53" points="-123.083,67.595 14.009,67.595 14.009,159.64 -112.81,159.64 -112.81,134.675 
					-123.083,134.675 				"/>
			</g>
		</a>
		<a id="s141" xlink:href="#" >
			<g>
				<polygon id="rect2998_2_" fill="#033B53" points="392.09,111.89 372.407,111.89 372.407,123.499 519.563,123.499 
					519.563,283.238 396.572,283.238 396.572,171.621 371.646,171.621 371.646,159.507 271.444,159.64 271.444,96.801 
					257.448,96.801 257.448,70.637 392.09,70.253 				"/>
			</g>
		</a>
		<a id="s104" xlink:href="#" >
			<g>
				<polygon id="rect2998_3_" fill="#033B53" points="221.506,258.875 375.874,258.875 375.874,286.564 360.895,286.516 
					360.895,350.654 221.506,350.654 				"/>
			</g>
		</a>
		<a id="s14" xlink:href="#" >
			<g>
				<path fill="#1DA3E2" d="M-112.81,172.583h-29.953v22.663h21.302c2.593-1.391,5.531-2.223,8.651-2.336V172.583L-112.81,172.583z"
					/>
			</g>
		</a>
		<a id="s99" xlink:href="#" >
			<g>
				<path fill="#AAFBFE" d="M-104.935,194.208v-21.625h-7.872v20.327c0.249-0.011,0.496-0.021,0.747-0.021
					C-109.552,192.89-107.148,193.359-104.935,194.208z"/>
			</g>
		</a>
		<a id="s135" xlink:href="#" >
			<g>
				<path fill="#64DBFD" d="M-91.816,172.583h-13.12v21.625c0.782,0.3,1.541,0.646,2.271,1.037h10.848L-91.816,172.583
					L-91.816,172.583z"/>
			</g>
		</a>
		<a id="s93" xlink:href="#" >
			<g>
				<rect id="rect2998_7_" x="-91.816" y="172.583" fill="#1EA8E9" width="27" height="22.663"/>
			</g>
		</a>
		<a id="A10_9_" xlink:href="#" >
			<g>
				<rect id="rect2998_8_" x="-64.048" y="172.583" fill="#03344B" width="7.871" height="22.662"/>
			</g>
		</a>
		<a id="s121" xlink:href="#" >
			<g>
				<rect id="rect2998_9_" x="-142.762" y="229.408" fill="#1EA8E9" width="16.727" height="25.642"/>
			</g>
		</a>
		<a id="s0_2_" xlink:href="#" >
			<g>
				<path fill="#B1FFFE" d="M-126.035,229.408v25.642h13.799v-22.331c-4-0.034-7.72-1.248-10.826-3.311H-126.035z"/>
			</g>
		</a>
		<a id="s50" xlink:href="#" >
			<g>
				<path fill="#6CEBFC" d="M-112.236,232.719v22.331h10.071v-24.962c-2.916,1.675-6.293,2.635-9.896,2.635
					C-112.121,232.723-112.178,232.719-112.236,232.719z"/>
			</g>
		</a>
		<a id="s67" xlink:href="#" >
			<g>
				<rect id="rect2998_13_" x="-99.142" y="229.466" fill="#21B3F9" width="15.088" height="25.584"/>
			</g>
		</a>
		<a id="s100" xlink:href="#" >
			<g>
				<rect id="rect2998_14_" x="-84.054" y="229.502" fill="#1791CB" width="6.45" height="25.548"/>
			</g>
		</a>
		<a id="s116" xlink:href="#" >
			<g>
				<rect id="rect2998_15_" x="-77.604" y="229.502" fill="#6DEDFD" width="6.776" height="25.548"/>
			</g>
		</a>
		<a id="s169" xlink:href="#" >
			<g>
				<rect id="rect2998_16_" x="-70.828" y="229.466" fill="#B4FFFE" width="14.214" height="25.584"/>
			</g>
		</a>
		<a id="s0" xlink:href="#" >
			<g>
				<rect id="rect2998_17_" x="-56.613" y="229.502" fill="#6DEDFD" width="13.883" height="25.602"/>
			</g>
		</a>
		<a id="s70" xlink:href="#" >
			<g>
				<rect id="rect2998_18_" x="-42.732" y="229.502" fill="#21B3F9" width="8.2" height="25.602"/>
			</g>
		</a>
		<a id="s33" xlink:href="#" >
			<g>
				<rect id="rect2998_19_" x="-34.642" y="229.502" fill="#1791CB" width="6.123" height="25.548"/>
			</g>
		</a>
		<a id="A10_21_" xlink:href="#" >
			<g>
				<rect id="rect2998_20_" x="-43.496" y="172.654" fill="#03344B" width="8.856" height="22.59"/>
			</g>
		</a>
		<a id="s94" xlink:href="#" >
			<g>
				<rect id="rect2998_21_" x="-34.642" y="172.654" fill="#A7F7FE" width="5.904" height="22.589"/>
			</g>
		</a>
		<a id="s111" xlink:href="#" >
			<g>
				<rect id="rect2998_22_" x="-28.736" y="172.583" fill="#63DAFD" width="6.778" height="22.663"/>
			</g>
		</a>
		<a id="s68" xlink:href="#" >
			<g>
				<rect id="rect2998_23_" x="-21.958" y="172.583" fill="#1DA3E2" width="7.216" height="22.663"/>
			</g>
		</a>
		<a id="A10_25_" xlink:href="#" >
			<g>
				<rect id="rect2998_24_" x="-14.741" y="172.654" fill="#1588BF" width="6.996" height="22.589"/>
			</g>
		</a>
		<a id="s166" xlink:href="#" >
			<g>
				<rect id="rect2998_25_" x="-7.748" y="172.654" fill="#6DEDFD" width="6.887" height="22.521"/>
			</g>
		</a>
		<a id="s18" xlink:href="#" >
			<g>
				<rect id="rect2998_26_" x="-21.851" y="229.466" fill="#B4FFFE" width="7.009" height="25.567"/>
			</g>
		</a>
		<a id="s60" xlink:href="#" >
			<g>
				<rect id="rect2998_27_" x="-14.84" y="229.466" fill="#6DEDFD" width="12.889" height="25.567"/>
			</g>
		</a>
		<a id="s101" xlink:href="#" >
			<g>
				<rect id="rect2998_28_" x="-1.951" y="229.502" fill="#21B4FA" width="29.408" height="70.74"/>
			</g>
		</a>
		<a id="s69" xlink:href="#" >
			<g>
				<rect id="rect2998_29_" x="2.75" y="172.654" fill="#ACFEFE" width="10.167" height="22.521"/>
			</g>
		</a>
		<a id="s20" xlink:href="#" >
			<g>
				<rect id="rect2998_30_" x="12.917" y="172.583" fill="#69E6FD" width="7.633" height="22.594"/>
			</g>
		</a>
		<a id="s34" xlink:href="#" >
			<g>
				<rect id="rect2998_31_" x="20.549" y="172.583" fill="#20B0F4" width="6.25" height="22.594"/>
			</g>
		</a>
		<a id="s12" xlink:href="#" >
			<g>
				<rect id="rect2998_32_" x="26.8" y="172.583" fill="#168FC8" width="20.991" height="22.594"/>
			</g>
		</a>
		<a id="s136" xlink:href="#" >
			<g>
				<polygon id="rect2998_33_" fill="#1792CC" points="27.456,229.466 42.705,229.466 42.705,321.648 -1.951,321.648 
					-1.951,300.244 27.456,300.244 				"/>
			</g>
		</a>
		<a id="s165" xlink:href="#" >
			<g>
				<rect id="rect2998_34_" x="53.477" y="172.654" fill="#ACFEFE" width="8.091" height="22.589"/>
			</g>
		</a>
		<a id="s78" xlink:href="#" >
			<g>
				<rect id="rect2998_35_" x="53.477" y="229.502" fill="#B4FFFE" width="11.7" height="25.531"/>
			</g>
		</a>
		<a id="s7" xlink:href="#" >
			<g>
				<rect id="rect2998_36_" x="67.688" y="229.502" fill="#B4FFFE" width="7.873" height="25.531"/>
			</g>
		</a>
		<a id="s85" xlink:href="#" >
			<g>
				<rect id="rect2998_37_" x="75.56" y="229.502" fill="#6DEEFD" width="6.668" height="25.531"/>
			</g>
		</a>
		<a id="s81" xlink:href="#" >
			<g>
				<rect id="rect2998_38_" x="82.228" y="229.502" fill="#21B3F9" width="6.807" height="25.531"/>
			</g>
		</a>
		<a id="s87" xlink:href="#" >
			<g>
				<rect id="rect2998_39_" x="89.035" y="229.502" fill="#1791CB" width="6.341" height="25.531"/>
			</g>
		</a>
		<a id="s0_1_" xlink:href="#" >
			<g>
				<rect id="rect2998_40_" x="95.373" y="229.502" fill="#0A5B7E" width="14.109" height="25.531"/>
			</g>
		</a>
		<a id="s74" xlink:href="#" >
			<g>
				<rect id="rect2998_41_" x="61.566" y="172.654" fill="#67E2FD" width="7.364" height="22.589"/>
			</g>
		</a>
		<a id="s9" xlink:href="#" >
			<g>
				<rect id="rect2998_42_" x="68.93" y="172.583" fill="#1EA7E8" width="20.328" height="22.594"/>
			</g>
		</a>
		<a id="s109" xlink:href="#" >
			<g>
				<rect id="rect2998_43_" x="89.256" y="172.654" fill="#148AC1" width="8.687" height="22.521"/>
			</g>
		</a>
		<a id="s128" xlink:href="#" >
			<g>
				<rect id="rect2998_44_" x="97.944" y="172.583" fill="#085678" width="13.583" height="22.662"/>
			</g>
		</a>
		<a id="s142" xlink:href="#" >
			<g>
				<polygon id="rect2998_45_" fill="#1791CB" points="124.336,237.121 167.295,237.121 167.295,258.875 135.245,258.822 
					135.18,255.279 124.336,255.279 				"/>
			</g>
		</a>
		<a id="s89" xlink:href="#" >
			<g>
				<rect id="rect2998_46_" x="151.211" y="186.249" fill="#168EC6" width="13.583" height="8.064"/>
			</g>
		</a>
		<a id="s82" xlink:href="#" >
			<g>
				<rect id="rect2998_47_" x="151.211" y="180.088" fill="#075175" width="7.982" height="6.161"/>
			</g>
		</a>
		<a id="s119" xlink:href="#" >
			<g>
				<rect id="rect2998_48_" x="167.295" y="229.502" fill="#B5FFFE" width="11.714" height="22.049"/>
			</g>
		</a>
		<a id="s72" xlink:href="#" >
			<g>
				<rect id="rect2998_49_" x="168.594" y="172.654" fill="#1FAFF3" width="6.305" height="22.591"/>
			</g>
		</a>
		<a id="s73" xlink:href="#" >
			<g>
				<rect id="rect2998_50_" x="179.009" y="229.502" fill="#6DEEFC" width="6.167" height="22.049"/>
			</g>
		</a>
		<a id="s129" xlink:href="#" >
			<g>
				<rect id="rect2998_51_" x="185.176" y="229.502" fill="#21B3F9" width="6.083" height="22.049"/>
			</g>
		</a>
		<a id="s92" xlink:href="#" >
			<g>
				<rect id="rect2998_52_" x="191.259" y="229.502" fill="#1791CB" width="14.944" height="22.049"/>
			</g>
		</a>
		<a id="s112" xlink:href="#" >
			<g>
				<rect id="rect2998_53_" x="174.899" y="172.657" fill="#A5F5FE" width="6.775" height="22.588"/>
			</g>
		</a>
		<a id="s23" xlink:href="#" >
			<g>
				<rect id="rect2998_54_" x="182.009" y="172.657" fill="#61D7FD" width="12.16" height="22.587"/>
			</g>
		</a>
		<a id="s62" xlink:href="#" >
			<g>
				<rect id="rect2998_55_" x="194.17" y="172.657" fill="#1EA6E7" width="6.207" height="22.588"/>
			</g>
		</a>
		<a id="s167" xlink:href="#" >
			<g>
				<polygon id="rect2998_56_" fill="#1486BB" points="200.377,172.654 212.177,172.654 212.177,182.181 208.245,182.181 
					208.245,195.244 200.377,195.244 				"/>
			</g>
		</a>
		<a id="s65" xlink:href="#" >
			<g>
				<polygon id="rect2998_57_" fill="#63DBFC" points="215.75,172.657 228.516,172.657 228.516,195.244 221.625,195.244 
					221.625,182.174 215.75,182.174 				"/>
			</g>
		</a>
		<a id="s140" xlink:href="#" >
			<g>
				<rect id="rect2998_58_" x="228.516" y="172.654" fill="#B2FFFE" width="21.378" height="22.59"/>
			</g>
		</a>
		<a id="s126" xlink:href="#" >
			<g>
				<rect id="rect2998_59_" x="214.729" y="229.502" fill="#1FAFF3" width="45.151" height="22.049"/>
			</g>
		</a>
		<a id="s63" xlink:href="#" >
			<g>
				<rect id="rect2998_60_" x="249.894" y="172.657" fill="#6CECFC" width="3.335" height="22.587"/>
			</g>
		</a>
		<a id="s4" xlink:href="#" >
			<g>
				<rect id="rect2998_61_" x="253.229" y="172.654" fill="#20B0F5" width="4.832" height="22.59"/>
			</g>
		</a>
		<a id="s97" xlink:href="#" >
			<g>
				<rect id="rect2998_62_" x="262.614" y="229.502" fill="#168BC2" width="14.761" height="22.049"/>
			</g>
		</a>
		<a id="s1" xlink:href="#" >
			<g>
				<rect id="rect2998_63_" x="277.375" y="229.502" fill="#0C577A" width="4.99" height="22.049"/>
			</g>
		</a>
		<a id="s36" xlink:href="#" >
			<g>
				<rect id="rect2998_64_" x="278.174" y="172.654" fill="#085779" width="6.195" height="22.591"/>
			</g>
		</a>
		<a id="s61" xlink:href="#" >
			<g>
				<rect id="rect2998_65_" x="263.525" y="172.657" fill="#1589C0" width="14.654" height="22.588"/>
			</g>
		</a>
		<a id="s83" xlink:href="#" >
			<g>
				<rect id="rect2998_66_" x="314.25" y="229.251" fill="#69E6FD" width="5.537" height="22.3"/>
			</g>
		</a>
		<a id="s125" xlink:href="#" >
			<g>
				<rect id="rect2998_67_" x="312.248" y="172.41" fill="#0C577A" width="7.105" height="22.825"/>
			</g>
		</a>
		<a id="s151" xlink:href="#" >
			<g>
				<rect id="rect2998_68_" x="319.353" y="172.41" fill="#ACFEFE" width="15.901" height="22.825"/>
			</g>
		</a>
		<a id="s10" xlink:href="#" >
			<g>
				<rect id="rect2998_69_" x="335.257" y="172.41" fill="#63DBFC" width="5.93" height="22.833"/>
			</g>
		</a>
		<a id="s112_2_" xlink:href="#" >
			<g>
				<path fill="#1EA8EA" d="M319.785,229.251v22.3h41.108v-17.263c-4.939-0.194-9.449-2.058-12.986-5.038L319.785,229.251
					L319.785,229.251z"/>
			</g>
		</a>
		<a id="s26" xlink:href="#" >
			<g>
				<rect id="rect2998_71_" x="341.186" y="172.41" fill="#1FABED" width="6.459" height="22.833"/>
			</g>
		</a>
		<a id="s58" xlink:href="#" >
			<g>
				<path fill="#1387BD" d="M360.897,234.287v17.264h6.984v-18.132c-1.94,0.575-3.997,0.89-6.123,0.89
					C361.469,234.309,361.183,234.299,360.897,234.287z"/>
			</g>
		</a>
		<a id="s96" xlink:href="#" >
			<g>
				<path fill="#075475" d="M375.607,229.251c-2.233,1.881-4.856,3.314-7.726,4.168v18.132h21v-22.3H375.607L375.607,229.251z"/>
			</g>
		</a>
		<a id="s27" xlink:href="#" >
			<g>
				<path fill="#075475" d="M388.884,172.437h-27.38v18.875c0.084-0.002,0.17-0.007,0.253-0.007c4.613,0,8.885,1.458,12.386,3.932
					h14.74L388.884,172.437L388.884,172.437z"/>
			</g>
		</a>
		<a id="A10_76_" xlink:href="#" >
			<g>
				<rect id="rect2998_75_" x="53.829" y="126.163" fill="#115268" width="33.741" height="28.911"/>
			</g>
		</a>
		<a id="A10_77_" xlink:href="#" >
			<g>
				<rect id="rect2998_76_" x="53.829" y="92.777" fill="#115268" width="33.74" height="28.909"/>
			</g>
		</a>
		<a id="A10_78_" xlink:href="#" >
			<g>
				<rect id="rect2998_77_" x="53.829" y="58.839" fill="#115268" width="33.74" height="29.46"/>
			</g>
		</a>
		<a id="A10_79_" xlink:href="#" >
			<g>
				<rect id="rect2998_78_" x="114.282" y="74.522" fill="#115268" width="13.561" height="11.445"/>
			</g>
		</a>
		<a id="A10_80_" xlink:href="#" >
			<g>
				<rect id="rect2998_79_" x="130.318" y="74.522" fill="#115268" width="13.356" height="11.445"/>
			</g>
		</a>
		<a id="A10_81_" xlink:href="#" >
			<g>
				<rect id="rect2998_80_" x="114.282" y="58.839" fill="#115268" width="13.362" height="11.414"/>
			</g>
		</a>
		<a id="A10_82_" xlink:href="#" >
			<g>
				<rect id="rect2998_81_" x="130.318" y="58.839" fill="#115268" width="13.356" height="11.414"/>
			</g>
		</a>
		<a id="A10_83_" xlink:href="#" >
			<g>
				<rect id="rect2998_82_" x="170.529" y="59.392" fill="#115268" width="33.741" height="28.91"/>
			</g>
		</a>
		<a id="A10_84_" xlink:href="#" >
			<g>
				<rect id="rect2998_83_" x="170.529" y="92.777" fill="#115268" width="33.741" height="28.909"/>
			</g>
		</a>
		<a id="A10_85_" xlink:href="#" >
			<g>
				<rect id="rect2998_84_" x="170.529" y="126.163" fill="#115268" width="33.741" height="28.911"/>
			</g>
		</a>
		<a id="A10_86_" xlink:href="#" >
			<g>
				<rect id="rect2998_85_" x="53.403" y="26.002" fill="#115268" width="150.865" height="28.909"/>
			</g>
		</a>
		<a id="s163" xlink:href="#" >
			<g>
				<path fill="#1388BE" d="M357.07,172.437h-9.427v22.8h1.727c2.282-1.608,4.886-2.786,7.696-3.413L357.07,172.437L357.07,172.437z
					"/>
			</g>
		</a>
		<a id="s88" xlink:href="#" >
			<g>
				<rect id="rect2998_4_" x="-28.518" y="229.408" fill="#6DEDFD" width="6.56" height="25.625"/>
			</g>
		</a>
	</g>
	<g id="Paths">
		<line fill="none" stroke="#000000" x1="-154.42" y1="211.996" x2="-134.4" y2="211.996"/>
		<line fill="none" stroke="#000000" x1="-134.4" y1="211.996" x2="-134.4" y2="199.224"/>
		<line fill="none" stroke="#000000" x1="-134.4" y1="227.66" x2="-119.138" y2="227.66"/>
		<line fill="none" stroke="#000000" x1="-119.138" y1="227.66" x2="-119.138" y2="231.962"/>
		<line fill="none" stroke="#000000" x1="-119.138" y1="227.66" x2="-107.2" y2="227.66"/>
		<line fill="none" stroke="#000000" x1="-107.2" y1="227.66" x2="-107.2" y2="231.962"/>
		<line fill="none" stroke="#000000" x1="-107.2" y1="227.66" x2="-90.941" y2="227.66"/>
		<line fill="none" stroke="#000000" x1="-90.941" y1="227.66" x2="-90.941" y2="229.408"/>
		<line fill="none" stroke="#000000" x1="-90.941" y1="227.66" x2="-80.828" y2="227.66"/>
		<line fill="none" stroke="#000000" x1="-80.828" y1="227.66" x2="-80.828" y2="229.408"/>
		<line fill="none" stroke="#000000" x1="-80.828" y1="227.66" x2="-74.215" y2="227.66"/>
		<line fill="none" stroke="#000000" x1="-74.215" y1="227.66" x2="-74.215" y2="229.408"/>
		<line fill="none" stroke="#000000" x1="-74.215" y1="227.66" x2="-64.048" y2="227.66"/>
		<line fill="none" stroke="#000000" x1="-64.048" y1="227.66" x2="-64.048" y2="229.509"/>
		<line fill="none" stroke="#000000" x1="-64.048" y1="227.66" x2="-49.671" y2="227.66"/>
		<line fill="none" stroke="#000000" x1="-49.671" y1="227.66" x2="-49.671" y2="229.408"/>
		<line fill="none" stroke="#000000" x1="-49.671" y1="227.66" x2="-38.631" y2="227.66"/>
		<line fill="none" stroke="#000000" x1="-38.631" y1="227.66" x2="-38.631" y2="229.509"/>
		<line fill="none" stroke="#000000" x1="-38.631" y1="227.66" x2="-31.687" y2="227.66"/>
		<line fill="none" stroke="#000000" x1="-31.687" y1="227.66" x2="-31.687" y2="229.408"/>
		<line fill="none" stroke="#000000" x1="-31.687" y1="227.66" x2="-18.35" y2="227.66"/>
		<line fill="none" stroke="#000000" x1="-18.35" y1="227.66" x2="-18.35" y2="229.408"/>
		<line fill="none" stroke="#000000" x1="-18.35" y1="227.66" x2="-8.711" y2="227.66"/>
		<line fill="none" stroke="#000000" x1="-8.711" y1="227.66" x2="-8.711" y2="229.509"/>
		<line fill="none" stroke="#000000" x1="-8.711" y1="227.66" x2="12.917" y2="227.66"/>
		<line fill="none" stroke="#000000" x1="12.917" y1="227.66" x2="12.917" y2="229.509"/>
		<line fill="none" stroke="#000000" x1="12.917" y1="227.66" x2="34.978" y2="227.66"/>
		<line fill="none" stroke="#000000" x1="34.978" y1="227.66" x2="34.978" y2="229.509"/>
		<line fill="none" stroke="#000000" x1="34.978" y1="227.66" x2="59.702" y2="227.66"/>
		<line fill="none" stroke="#000000" x1="59.702" y1="227.66" x2="59.702" y2="229.509"/>
		<line fill="none" stroke="#000000" x1="59.702" y1="227.66" x2="71.624" y2="227.66"/>
		<line fill="none" stroke="#000000" x1="71.624" y1="227.66" x2="71.624" y2="229.509"/>
		<line fill="none" stroke="#000000" x1="71.624" y1="227.66" x2="78.894" y2="227.66"/>
		<line fill="none" stroke="#000000" x1="78.894" y1="227.66" x2="78.894" y2="229.509"/>
		<line fill="none" stroke="#000000" x1="78.894" y1="227.66" x2="85.199" y2="227.66"/>
		<line fill="none" stroke="#000000" x1="85.199" y1="227.66" x2="85.199" y2="229.509"/>
		<line fill="none" stroke="#000000" x1="85.199" y1="227.66" x2="92.204" y2="227.66"/>
		<line fill="none" stroke="#000000" x1="92.204" y1="227.66" x2="92.204" y2="229.509"/>
		<line fill="none" stroke="#000000" x1="92.204" y1="227.66" x2="102.431" y2="227.66"/>
		<line fill="none" stroke="#000000" x1="102.431" y1="227.66" x2="102.431" y2="229.509"/>
		<line fill="none" stroke="#000000" x1="102.431" y1="227.66" x2="146.325" y2="227.66"/>
		<line fill="none" stroke="#000000" x1="146.325" y1="227.66" x2="146.325" y2="237.121"/>
		<line fill="none" stroke="#000000" x1="146.325" y1="227.66" x2="173.968" y2="227.66"/>
		<line fill="none" stroke="#000000" x1="173.968" y1="227.66" x2="173.968" y2="229.502"/>
		<line fill="none" stroke="#000000" x1="173.968" y1="227.66" x2="181.675" y2="227.66"/>
		<line fill="none" stroke="#000000" x1="181.675" y1="227.66" x2="181.675" y2="229.502"/>
		<line fill="none" stroke="#000000" x1="181.675" y1="227.66" x2="188.218" y2="227.66"/>
		<line fill="none" stroke="#000000" x1="188.218" y1="227.66" x2="188.218" y2="229.502"/>
		<line fill="none" stroke="#000000" x1="188.218" y1="227.66" x2="197.996" y2="227.66"/>
		<line fill="none" stroke="#000000" x1="197.996" y1="227.66" x2="197.996" y2="229.502"/>
		<line fill="none" stroke="#000000" x1="197.996" y1="227.66" x2="231.956" y2="227.66"/>
		<line fill="none" stroke="#000000" x1="231.956" y1="227.66" x2="231.956" y2="229.502"/>
		<line fill="none" stroke="#000000" x1="231.956" y1="227.66" x2="269.995" y2="227.66"/>
		<line fill="none" stroke="#000000" x1="269.995" y1="227.66" x2="269.995" y2="229.502"/>
		<line fill="none" stroke="#000000" x1="269.995" y1="227.66" x2="279.87" y2="227.66"/>
		<line fill="none" stroke="#000000" x1="279.87" y1="227.66" x2="279.87" y2="229.502"/>
		<line fill="none" stroke="#000000" x1="279.87" y1="227.66" x2="317.019" y2="227.66"/>
		<line fill="none" stroke="#000000" x1="317.019" y1="227.66" x2="317.019" y2="229.249"/>
		<line fill="none" stroke="#000000" x1="317.019" y1="227.66" x2="336.287" y2="227.66"/>
		<line fill="none" stroke="#000000" x1="336.287" y1="227.66" x2="336.287" y2="229.249"/>
		<line fill="none" stroke="#000000" x1="336.287" y1="227.66" x2="364.389" y2="227.66"/>
		<line fill="none" stroke="#000000" x1="364.389" y1="227.66" x2="364.389" y2="234.448"/>
		<line fill="none" stroke="#000000" x1="364.389" y1="227.66" x2="381.635" y2="227.66"/>
		<line fill="none" stroke="#000000" x1="381.635" y1="227.66" x2="381.635" y2="229.249"/>
		<line fill="none" stroke="#000000" x1="381.635" y1="227.66" x2="381.635" y2="213.585"/>
		<line fill="none" stroke="#000000" x1="381.635" y1="199.224" x2="381.635" y2="213.585"/>
		<line fill="none" stroke="#000000" x1="381.635" y1="195.244" x2="381.635" y2="199.224"/>
		<line fill="none" stroke="#000000" x1="381.635" y1="199.224" x2="352.357" y2="199.224"/>
		<line fill="none" stroke="#000000" x1="352.357" y1="199.224" x2="352.357" y2="193.54"/>
		<line fill="none" stroke="#000000" x1="352.357" y1="199.224" x2="344.415" y2="199.224"/>
		<line fill="none" stroke="#000000" x1="344.415" y1="199.224" x2="344.415" y2="195.244"/>
		<line fill="none" stroke="#000000" x1="344.415" y1="199.224" x2="338.223" y2="199.224"/>
		<line fill="none" stroke="#000000" x1="338.223" y1="199.224" x2="338.223" y2="195.244"/>
		<line fill="none" stroke="#000000" x1="338.223" y1="199.224" x2="326.867" y2="199.224"/>
		<line fill="none" stroke="#000000" x1="326.867" y1="199.224" x2="326.867" y2="195.244"/>
		<line fill="none" stroke="#000000" x1="326.867" y1="199.224" x2="315.8" y2="199.224"/>
		<line fill="none" stroke="#000000" x1="315.8" y1="199.224" x2="315.8" y2="195.244"/>
		<line fill="none" stroke="#000000" x1="315.8" y1="199.224" x2="281.271" y2="199.224"/>
		<line fill="none" stroke="#000000" x1="281.271" y1="199.224" x2="281.271" y2="195.244"/>
		<line fill="none" stroke="#000000" x1="281.271" y1="199.224" x2="269.995" y2="199.224"/>
		<line fill="none" stroke="#000000" x1="269.995" y1="199.224" x2="269.995" y2="195.244"/>
		<line fill="none" stroke="#000000" x1="269.995" y1="199.224" x2="255.644" y2="199.224"/>
		<line fill="none" stroke="#000000" x1="255.644" y1="199.224" x2="255.644" y2="195.244"/>
		<line fill="none" stroke="#000000" x1="255.644" y1="199.224" x2="251.562" y2="199.224"/>
		<line fill="none" stroke="#000000" x1="251.562" y1="199.224" x2="251.562" y2="195.244"/>
		<line fill="none" stroke="#000000" x1="251.562" y1="199.224" x2="240.692" y2="199.224"/>
		<line fill="none" stroke="#000000" x1="240.692" y1="199.224" x2="240.692" y2="195.244"/>
		<line fill="none" stroke="#000000" x1="240.692" y1="199.224" x2="224.987" y2="199.224"/>
		<line fill="none" stroke="#000000" x1="224.987" y1="199.224" x2="224.987" y2="195.244"/>
		<line fill="none" stroke="#000000" x1="224.987" y1="199.224" x2="214.976" y2="199.224"/>
		<line fill="none" stroke="#000000" x1="214.976" y1="199.224" x2="204.278" y2="199.224"/>
		<line fill="none" stroke="#000000" x1="204.278" y1="199.224" x2="204.278" y2="195.244"/>
		<line fill="none" stroke="#000000" x1="204.278" y1="199.224" x2="197.273" y2="199.224"/>
		<line fill="none" stroke="#000000" x1="197.273" y1="199.224" x2="197.273" y2="195.244"/>
		<line fill="none" stroke="#000000" x1="197.273" y1="199.224" x2="188.218" y2="199.224"/>
		<line fill="none" stroke="#000000" x1="188.218" y1="199.224" x2="188.218" y2="195.244"/>
		<line fill="none" stroke="#000000" x1="188.218" y1="199.224" x2="178.286" y2="199.224"/>
		<line fill="none" stroke="#000000" x1="178.286" y1="199.224" x2="178.286" y2="195.244"/>
		<line fill="none" stroke="#000000" x1="178.286" y1="199.224" x2="171.747" y2="199.224"/>
		<line fill="none" stroke="#000000" x1="171.747" y1="199.224" x2="171.747" y2="195.244"/>
		<line fill="none" stroke="#000000" x1="171.747" y1="199.224" x2="157.558" y2="199.224"/>
		<line fill="none" stroke="#000000" x1="157.558" y1="199.224" x2="157.558" y2="194.438"/>
		<line fill="none" stroke="#000000" x1="104.734" y1="199.224" x2="104.734" y2="195.177"/>
		<line fill="none" stroke="#000000" x1="104.734" y1="199.224" x2="93.602" y2="199.224"/>
		<line fill="none" stroke="#000000" x1="93.602" y1="199.224" x2="93.602" y2="195.177"/>
		<line fill="none" stroke="#000000" x1="93.602" y1="199.224" x2="80.116" y2="199.224"/>
		<line fill="none" stroke="#000000" x1="80.116" y1="199.224" x2="80.116" y2="195.177"/>
		<line fill="none" stroke="#000000" x1="80.116" y1="199.224" x2="65.248" y2="199.224"/>
		<line fill="none" stroke="#000000" x1="65.248" y1="199.224" x2="65.248" y2="195.177"/>
		<line fill="none" stroke="#000000" x1="65.248" y1="199.224" x2="57.522" y2="199.224"/>
		<line fill="none" stroke="#000000" x1="57.522" y1="199.224" x2="57.522" y2="195.177"/>
		<line fill="none" stroke="#000000" x1="57.522" y1="199.224" x2="37.297" y2="199.224"/>
		<line fill="none" stroke="#000000" x1="37.297" y1="199.224" x2="37.297" y2="195.177"/>
		<line fill="none" stroke="#000000" x1="37.297" y1="199.224" x2="23.674" y2="199.224"/>
		<line fill="none" stroke="#000000" x1="23.674" y1="199.224" x2="23.674" y2="195.177"/>
		<line fill="none" stroke="#000000" x1="23.674" y1="199.224" x2="16.733" y2="199.224"/>
		<line fill="none" stroke="#000000" x1="16.733" y1="199.224" x2="16.733" y2="195.177"/>
		<line fill="none" stroke="#000000" x1="16.733" y1="199.224" x2="7.722" y2="199.224"/>
		<line fill="none" stroke="#000000" x1="7.722" y1="199.224" x2="7.722" y2="195.177"/>
		<line fill="none" stroke="#000000" x1="7.722" y1="199.224" x2="-4.304" y2="199.224"/>
		<line fill="none" stroke="#000000" x1="-4.304" y1="199.224" x2="-4.304" y2="195.177"/>
		<line fill="none" stroke="#000000" x1="-4.304" y1="199.224" x2="-11.243" y2="199.224"/>
		<line fill="none" stroke="#000000" x1="-11.243" y1="199.224" x2="-11.243" y2="195.177"/>
		<line fill="none" stroke="#000000" x1="-11.243" y1="199.224" x2="-18.35" y2="199.224"/>
		<line fill="none" stroke="#000000" x1="-18.35" y1="199.224" x2="-18.35" y2="195.177"/>
		<line fill="none" stroke="#000000" x1="-18.35" y1="199.224" x2="-25.348" y2="199.224"/>
		<line fill="none" stroke="#000000" x1="-25.348" y1="199.224" x2="-25.348" y2="195.177"/>
		<line fill="none" stroke="#000000" x1="-25.348" y1="199.224" x2="-31.687" y2="199.224"/>
		<line fill="none" stroke="#000000" x1="-31.687" y1="199.224" x2="-31.687" y2="195.177"/>
		<line fill="none" stroke="#000000" x1="-31.687" y1="199.224" x2="-49.671" y2="199.224"/>
		<line fill="none" stroke="#000000" x1="-49.671" y1="199.224" x2="-78.317" y2="199.224"/>
		<line fill="none" stroke="#000000" x1="-78.317" y1="199.224" x2="-78.317" y2="195.177"/>
		<line fill="none" stroke="#000000" x1="-78.317" y1="199.224" x2="-97.337" y2="199.224"/>
		<line fill="none" stroke="#000000" x1="-97.337" y1="199.224" x2="-97.337" y2="195.177"/>
		<line fill="none" stroke="#000000" x1="-97.337" y1="199.224" x2="-108.873" y2="199.224"/>
		<line fill="none" stroke="#000000" x1="-108.873" y1="199.224" x2="-108.873" y2="192.58"/>
		<line fill="none" stroke="#000000" x1="-108.873" y1="199.224" x2="-134.4" y2="199.224"/>
		<line fill="none" stroke="#000000" x1="-49.671" y1="199.224" x2="-49.671" y2="158.846"/>
		<line fill="none" stroke="#000000" x1="132.677" y1="204.102" x2="132.677" y2="158.846"/>
		<line fill="none" stroke="#000000" x1="381.635" y1="213.585" x2="398.609" y2="213.585"/>
		<line fill="none" stroke="#000000" x1="-134.4" y1="211.996" x2="-124.06" y2="211.996"/>
		<line fill="none" stroke="#000000" x1="381.635" y1="213.585" x2="375.734" y2="213.585"/>
		<line fill="none" stroke="#000000" x1="-134.4" y1="195.177" x2="-134.4" y2="199.224"/>
		<line fill="none" stroke="#000000" x1="-134.4" y1="211.996" x2="-134.4" y2="227.66"/>
		<line fill="none" stroke="#000000" x1="-134.4" y1="227.66" x2="-134.4" y2="229.408"/>
	</g>
	<g id="Doors">
		<line id="s165_2_" fill="none" stroke="#000000" x1="57.522" y1="191.767" x2="57.522" y2="195.177"/>
		<line id="s94_2_" fill="none" stroke="#000000" x1="-31.687" y1="191.767" x2="-31.687" y2="195.177"/>
		<line id="s111_2_" fill="none" stroke="#000000" x1="-25.358" y1="191.767" x2="-25.358" y2="195.177"/>
		<line id="s68_2_" fill="none" stroke="#000000" x1="-18.35" y1="191.767" x2="-18.35" y2="195.177"/>
		<line id="s0_3_" fill="none" stroke="#000000" x1="-11.243" y1="191.767" x2="-11.243" y2="195.177"/>
		<line id="s166_2_" fill="none" stroke="#000000" x1="-4.304" y1="191.767" x2="-4.304" y2="195.177"/>
		<line id="s69_2_" fill="none" stroke="#000000" x1="7.724" y1="191.767" x2="7.724" y2="195.177"/>
		<line id="s20_2_" fill="none" stroke="#000000" x1="16.733" y1="191.767" x2="16.733" y2="195.177"/>
		<line id="s34_2_" fill="none" stroke="#000000" x1="23.674" y1="191.767" x2="23.674" y2="195.177"/>
		<line id="s12_2_" fill="none" stroke="#000000" x1="37.297" y1="191.767" x2="37.297" y2="195.177"/>
		<line id="s93_2_" fill="none" stroke="#000000" x1="-78.317" y1="191.767" x2="-78.317" y2="195.177"/>
		<line id="s135_2_" fill="none" stroke="#000000" x1="-97.337" y1="191.767" x2="-97.337" y2="195.177"/>
		<line id="s99_1_" fill="none" stroke="#000000" x1="-108.873" y1="189.17" x2="-108.873" y2="192.58"/>
		<line id="s14_2_" fill="none" stroke="#000000" x1="-134.4" y1="191.767" x2="-134.4" y2="195.177"/>
		<line id="s121_2_" fill="none" stroke="#000000" x1="-134.4" y1="229.408" x2="-134.4" y2="232.821"/>
		<line id="s146_2_" fill="none" stroke="#000000" x1="-154.42" y1="211.996" x2="-157.833" y2="211.996"/>
		<line id="s0_6_" fill="none" stroke="#000000" x1="-119.138" y1="231.962" x2="-119.138" y2="235.372"/>
		<line id="s50_2_" fill="none" stroke="#000000" x1="-107.2" y1="231.962" x2="-107.2" y2="235.372"/>
		<line id="s67_2_" fill="none" stroke="#000000" x1="-90.941" y1="229.408" x2="-90.941" y2="232.821"/>
		<line id="s100_2_" fill="none" stroke="#000000" x1="-80.828" y1="229.408" x2="-80.828" y2="232.821"/>
		<line id="s116_2_" fill="none" stroke="#000000" x1="-74.215" y1="229.408" x2="-74.215" y2="232.821"/>
		<line id="s169_2_" fill="none" stroke="#000000" x1="-64.048" y1="229.509" x2="-64.048" y2="232.92"/>
		<line id="s0_5_" fill="none" stroke="#000000" x1="-49.671" y1="229.408" x2="-49.671" y2="232.821"/>
		<line id="s70_2_" fill="none" stroke="#000000" x1="-38.631" y1="229.509" x2="-38.631" y2="232.92"/>
		<line id="s33_2_" fill="none" stroke="#000000" x1="-31.687" y1="229.408" x2="-31.687" y2="232.821"/>
		<line id="s18_2_" fill="none" stroke="#000000" x1="-18.35" y1="229.408" x2="-18.35" y2="232.821"/>
		<line id="s60_2_" fill="none" stroke="#000000" x1="-8.711" y1="229.509" x2="-8.711" y2="232.92"/>
		<line id="s101_2_" fill="none" stroke="#000000" x1="12.917" y1="229.509" x2="12.917" y2="232.92"/>
		<line id="s136_2_" fill="none" stroke="#000000" x1="34.978" y1="229.509" x2="34.978" y2="232.92"/>
		<line id="s78_2_" fill="none" stroke="#000000" x1="59.702" y1="229.509" x2="59.702" y2="232.92"/>
		<line id="s7_2_" fill="none" stroke="#000000" x1="71.624" y1="229.509" x2="71.624" y2="232.92"/>
		<line id="s85_2_" fill="none" stroke="#000000" x1="78.894" y1="229.509" x2="78.894" y2="232.92"/>
		<line id="s81_2_" fill="none" stroke="#000000" x1="85.199" y1="229.509" x2="85.199" y2="232.92"/>
		<line id="s87_2_" fill="none" stroke="#000000" x1="92.204" y1="229.509" x2="92.204" y2="232.92"/>
		<line id="s0_4_" fill="none" stroke="#000000" x1="102.432" y1="229.509" x2="102.432" y2="232.92"/>
		<line id="s142_2_" fill="none" stroke="#000000" x1="146.325" y1="237.121" x2="146.325" y2="240.531"/>
		<line id="s119_2_" fill="none" stroke="#000000" x1="173.968" y1="229.509" x2="173.968" y2="232.92"/>
		<line id="s73_1_" fill="none" stroke="#000000" x1="181.675" y1="229.502" x2="181.675" y2="232.913"/>
		<line id="s129_2_" fill="none" stroke="#000000" x1="188.218" y1="229.502" x2="188.218" y2="232.913"/>
		<line id="s92_2_" fill="none" stroke="#000000" x1="197.996" y1="229.502" x2="197.996" y2="232.913"/>
		<line id="s126_2_" fill="none" stroke="#000000" x1="231.956" y1="229.502" x2="231.956" y2="232.913"/>
		<line id="s97_2_" fill="none" stroke="#000000" x1="269.995" y1="229.502" x2="269.995" y2="232.913"/>
		<line id="s1_2_" fill="none" stroke="#000000" x1="279.87" y1="229.502" x2="279.87" y2="232.913"/>
		<line id="s83_2_" fill="none" stroke="#000000" x1="317.019" y1="229.251" x2="317.019" y2="232.659"/>
		<line id="s112_3_" fill="none" stroke="#000000" x1="336.287" y1="229.251" x2="336.287" y2="232.659"/>
		<line id="s58_2_" fill="none" stroke="#000000" x1="364.389" y1="234.448" x2="364.389" y2="237.86"/>
		<line id="s96_2_" fill="none" stroke="#000000" x1="381.635" y1="229.35" x2="381.635" y2="232.76"/>
		<line id="s27_2_" fill="none" stroke="#000000" x1="381.635" y1="191.834" x2="381.635" y2="195.244"/>
		<line id="s163_2_" fill="none" stroke="#000000" x1="352.357" y1="190.129" x2="352.357" y2="193.54"/>
		<line id="s26_2_" fill="none" stroke="#000000" x1="344.415" y1="191.834" x2="344.415" y2="195.244"/>
		<line id="s10_2_" fill="none" stroke="#000000" x1="338.223" y1="191.834" x2="338.223" y2="195.244"/>
		<line id="s151_1_" fill="none" stroke="#000000" x1="326.867" y1="191.834" x2="326.867" y2="195.244"/>
		<line id="s125_2_" fill="none" stroke="#000000" x1="315.8" y1="191.834" x2="315.8" y2="195.244"/>
		<line id="s36_1_" fill="none" stroke="#000000" x1="281.272" y1="191.834" x2="281.272" y2="195.244"/>
		<line id="s61_2_" fill="none" stroke="#000000" x1="269.995" y1="191.834" x2="269.995" y2="195.244"/>
		<line id="s4_2_" fill="none" stroke="#000000" x1="255.646" y1="191.834" x2="255.646" y2="195.244"/>
		<line id="s63_2_" fill="none" stroke="#000000" x1="251.562" y1="191.834" x2="251.562" y2="195.244"/>
		<line id="s140_2_" fill="none" stroke="#000000" x1="240.692" y1="191.834" x2="240.692" y2="195.244"/>
		<line id="s65_2_" fill="none" stroke="#000000" x1="224.987" y1="191.834" x2="224.987" y2="195.244"/>
		<line id="s167_2_" fill="none" stroke="#000000" x1="204.278" y1="191.834" x2="204.278" y2="195.244"/>
		<line id="s62_2_" fill="none" stroke="#000000" x1="197.273" y1="191.834" x2="197.273" y2="195.244"/>
		<line id="s23_2_" fill="none" stroke="#000000" x1="188.218" y1="191.834" x2="188.218" y2="195.244"/>
		<line id="s122" fill="none" stroke="#000000" x1="178.286" y1="191.834" x2="178.286" y2="195.244"/>
		<line id="s72_2_" fill="none" stroke="#000000" x1="171.747" y1="191.834" x2="171.747" y2="195.244"/>
		<line id="s89_2_" fill="none" stroke="#000000" x1="157.558" y1="191.026" x2="157.558" y2="194.438"/>
		<line id="s141_1_" fill="none" stroke="#000000" x1="398.609" y1="213.585" x2="402.021" y2="213.585"/>
		<line id="s74_2_" fill="none" stroke="#000000" x1="65.248" y1="191.767" x2="65.248" y2="195.177"/>
		<line id="s9_2_" fill="none" stroke="#000000" x1="80.116" y1="191.767" x2="80.116" y2="195.177"/>
		<line id="s109_2_" fill="none" stroke="#000000" x1="93.602" y1="191.767" x2="93.602" y2="195.177"/>
		<line id="s128_2_" fill="none" stroke="#000000" x1="104.734" y1="191.767" x2="104.734" y2="195.177"/>
		<line id="s134" fill="none" stroke="#000000" x1="132.677" y1="155.433" x2="132.677" y2="158.846"/>
		<line id="s155_2_" fill="none" stroke="#000000" x1="-49.671" y1="155.074" x2="-49.671" y2="158.846"/>
	</g>
	<g id="Portals">
		
			<line id="Stair.3.mapa0" fill="none" stroke="#000000" stroke-miterlimit="10" x1="372.259" y1="213.585" x2="375.734" y2="213.585"/>		
			<line id="Stair.2.mapa0" fill="none" stroke="#000000" stroke-miterlimit="10" x1="132.677" y1="204.102" x2="132.677" y2="208.94"/>		
			<line id="Stair.1.mapa0" fill="none" stroke="#000000" stroke-miterlimit="10" x1="-124.06" y1="211.996" x2="-119.21" y2="211.996"/>
	</g>
</g>
</svg>
